<svg id="Layer_1" data-name="Layer 1" xmlns="http://www.w3.org/2000/svg" viewBox="0 0 720 720"><path d="M290.05,355.35v55.51H277.37l-2.54-13.53q-5.91,8.61-13.24,12.54t-17.75,3.95q-20.85,0-34.45-15.22T195.8,360q0-24,13.8-38.89t35.93-14.93q18.6,0,30.57,9.3t13.95,25.22H270.19q-2.4-6.9-6.34-10.29-7.05-6.2-18.18-6.2-13.38,0-21.06,9.44t-7.68,26.07q0,15.78,8.24,25.92a27.11,27.11,0,0,0,42.06.28,22.34,22.34,0,0,0,5.07-13H248.91V355.35Z"/><path d="M367.68,378.74h-51c.28,6.38,1.22,10.85,2.82,13.38q4.37,6.63,13,6.62,11.27,0,15.08-9.58H367a32.14,32.14,0,0,1-12.82,18,38.16,38.16,0,0,1-22.4,6.69q-16.22,0-25.51-10.5T297,374.51q0-19.15,9.43-30.22t25.79-11.06a35.29,35.29,0,0,1,20.22,5.85,32.44,32.44,0,0,1,12.46,16.27,61.27,61.27,0,0,1,3,20C367.82,376.48,367.78,377.61,367.68,378.74ZM317,365.63h30.29q-.56-7-3.1-11a14.27,14.27,0,0,0-12.25-6.34Q318.93,348.3,317,365.63Z"/><path d="M375.43,334.5h19.73v11q8.16-12.25,22.82-12.26,12.12,0,18.81,6.9t6.69,19.45v51H423.76V363.66q0-13.67-12.68-13.67-7.18,0-11.56,4.09a14.16,14.16,0,0,0-4.36,10.85v45.65H375.43Z"/><path d="M472.93,366.34v44.24H451.79V307.87h72.14v17.61h-51v23.25h44.94v17.61Z"/><path d="M593.53,408.18v2.4H572.11a11.85,11.85,0,0,1-2.25-7.61q-10.43,10.84-23.11,10.85-10.85,0-17.75-7.19-5.36-5.78-5.35-15.64,0-20.14,22.4-23.95l7.89-1.41q9.72-1.54,12.4-2.95a6.25,6.25,0,0,0,3.38-5.92q0-7.61-11.41-7.61-7.34,0-10.29,2.26t-3.66,8.17h-19q1.83-26.35,32.54-26.35,31.14,0,31.14,23.39v42.26Q589,404.1,593.53,408.18ZM569.72,380v-5.35a38.09,38.09,0,0,1-8.31,2.4l-6.77,1.26q-6.2,1.28-8.73,3.67a8.84,8.84,0,0,0-2.54,6.76,8.32,8.32,0,0,0,2.89,6.69,11.6,11.6,0,0,0,7.82,2.47q7.47,0,11.55-4.65T569.72,380Z"/><path d="M597.89,307.87h19.73v36.49q7.05-11.13,21-11.13A29.23,29.23,0,0,1,652,336.54a28,28,0,0,1,10.42,8.95q8.18,11.83,8.17,28,0,17.21-9.15,28.75t-22.83,11.55q-14,0-21-11v7.75H597.89Zm48.33,48.54q-4.65-6.69-12-6.7t-12,6.56q-4.65,6.54-4.65,17,0,10.86,4.58,17.47t12,6.62q7.32,0,12-6.62t4.65-17Q650.87,363.1,646.22,356.41Z"/><path d="M79.75,306.18,49.41,360,82,413.81h62.9L175.2,360l-32.55-53.82ZM161.37,360,137.7,402H88.63l-25.4-42,23.68-42h14.8L78,360l6.33,10.45L113.93,318h15L92.11,383.27l3.66,6.05H130L146.57,360l-6.33-10.46-16.16,28.37-14.78,0,30.34-53.81Z"/></svg>